<svg xmlns="http://www.w3.org/2000/svg" xmlns:xlink="http://www.w3.org/1999/xlink" contentStyleType="text/css" data-diagram-type="STATE" height="1559px" preserveAspectRatio="none" style="width:1356px;height:1559px;background:#FFFFFF;" version="1.1" viewBox="0 0 1356 1559" width="1356px" zoomAndPan="magnify"><defs/><g><!--cluster CardBidding--><g id="cluster_CardBidding"><path d="M417.5,909.3 L1044.5,909.3 A12.5,12.5 0 0 1 1057,921.8 L1057,930.5969 L405,930.5969 L405,921.8 A12.5,12.5 0 0 1 417.5,909.3 " fill="#F1F1F1" style="stroke:#F1F1F1;stroke-width:1;"/><rect fill="none" height="644" rx="12.5" ry="12.5" style="stroke:#181818;stroke-width:0.5;" width="652" x="405" y="909.3"/><line style="stroke:#181818;stroke-width:0.5;" x1="405" x2="1057" y1="930.5969" y2="930.5969"/><text fill="#000000" font-family="sans-serif" font-size="14" lengthAdjust="spacing" textLength="85.9141" x="688.043" y="926.2951">CardBidding</text></g><!--cluster BuyResources--><g id="cluster_BuyResources"><path d="M862.5,7 L1330.5,7 A12.5,12.5 0 0 1 1343,19.5 L1343,28.2969 L850,28.2969 L850,19.5 A12.5,12.5 0 0 1 862.5,7 " fill="#F1F1F1" style="stroke:#F1F1F1;stroke-width:1;"/><rect fill="none" height="575.15" rx="12.5" ry="12.5" style="stroke:#181818;stroke-width:0.5;" width="493" x="850" y="7"/><line style="stroke:#181818;stroke-width:0.5;" x1="850" x2="1343" y1="28.2969" y2="28.2969"/><text fill="#000000" font-family="sans-serif" font-size="14" lengthAdjust="spacing" textLength="99.1963" x="1046.9019" y="23.9951">BuyResources</text></g><!--cluster BuildCities--><g id="cluster_BuildCities"><path d="M19.5,454.15 L414.5,454.15 A12.5,12.5 0 0 1 427,466.65 L427,475.4469 L7,475.4469 L7,466.65 A12.5,12.5 0 0 1 19.5,454.15 " fill="#F1F1F1" style="stroke:#F1F1F1;stroke-width:1;"/><rect fill="none" height="390.15" rx="12.5" ry="12.5" style="stroke:#181818;stroke-width:0.5;" width="420" x="7" y="454.15"/><line style="stroke:#181818;stroke-width:0.5;" x1="7" x2="427" y1="475.4469" y2="475.4469"/><text fill="#000000" font-family="sans-serif" font-size="14" lengthAdjust="spacing" textLength="74.0947" x="179.9526" y="471.1451">BuildCities</text></g><!--cluster ReorderPlayers--><g id="cluster_ReorderPlayers"><path d="M600.5,182 L718.5,182 A12.5,12.5 0 0 1 731,194.5 L731,203.2969 L588,203.2969 L588,194.5 A12.5,12.5 0 0 1 600.5,182 " fill="#F1F1F1" style="stroke:#F1F1F1;stroke-width:1;"/><rect fill="none" height="136" rx="12.5" ry="12.5" style="stroke:#181818;stroke-width:0.5;" width="143" x="588" y="182"/><line style="stroke:#181818;stroke-width:0.5;" x1="588" x2="731" y1="203.2969" y2="203.2969"/><text fill="#000000" font-family="sans-serif" font-size="14" lengthAdjust="spacing" textLength="106.7773" x="606.1113" y="198.9951">ReorderPlayers</text></g><g id="CardBidding.BidOrPass"><rect fill="#F1F1F1" height="50" rx="12.5" ry="12.5" style="stroke:#181818;stroke-width:0.5;" width="90.7656" x="782.62" y="971.3"/><line style="stroke:#181818;stroke-width:0.5;" x1="782.62" x2="873.3856" y1="997.5969" y2="997.5969"/><text fill="#000000" font-family="sans-serif" font-size="14" lengthAdjust="spacing" textLength="70.7656" x="792.62" y="989.2951">BidOrPass</text></g><g id="CardBidding.SubmitBid"><rect fill="#F1F1F1" height="50" rx="12.5" ry="12.5" style="stroke:#181818;stroke-width:0.5;" width="92.0439" x="781.98" y="1098.3"/><line style="stroke:#181818;stroke-width:0.5;" x1="781.98" x2="874.0239" y1="1124.5969" y2="1124.5969"/><text fill="#000000" font-family="sans-serif" font-size="14" lengthAdjust="spacing" textLength="72.0439" x="791.98" y="1116.2951">SubmitBid</text></g><g id="CardBidding.ThrowCard"><rect fill="#F1F1F1" height="50" rx="12.5" ry="12.5" style="stroke:#181818;stroke-width:0.5;" width="96.1934" x="428.9" y="1352.3"/><line style="stroke:#181818;stroke-width:0.5;" x1="428.9" x2="525.0934" y1="1378.5969" y2="1378.5969"/><text fill="#000000" font-family="sans-serif" font-size="14" lengthAdjust="spacing" textLength="76.1934" x="438.9" y="1370.2951">ThrowCard</text></g><g id="CardBidding.AuctionEnd"><rect fill="#F1F1F1" height="50" rx="12.5" ry="12.5" style="stroke:#181818;stroke-width:0.5;" width="99.5703" x="487.21" y="1479.3"/><line style="stroke:#181818;stroke-width:0.5;" x1="487.21" x2="586.7803" y1="1505.5969" y2="1505.5969"/><text fill="#000000" font-family="sans-serif" font-size="14" lengthAdjust="spacing" textLength="79.5703" x="497.21" y="1497.2951">AuctionEnd</text></g><g id="CardBidding.ResolveWinner"><rect fill="#F1F1F1" height="50" rx="12.5" ry="12.5" style="stroke:#181818;stroke-width:0.5;" width="124.8359" x="565.58" y="1225.3"/><line style="stroke:#181818;stroke-width:0.5;" x1="565.58" x2="690.4159" y1="1251.5969" y2="1251.5969"/><text fill="#000000" font-family="sans-serif" font-size="14" lengthAdjust="spacing" textLength="104.8359" x="575.58" y="1243.2951">ResolveWinner</text></g><g id="BuyResources.StartResourceBuying"><rect fill="#F1F1F1" height="50" rx="12.5" ry="12.5" style="stroke:#181818;stroke-width:0.5;" width="167.752" x="879.12" y="61"/><line style="stroke:#181818;stroke-width:0.5;" x1="879.12" x2="1046.872" y1="87.2969" y2="87.2969"/><text fill="#000000" font-family="sans-serif" font-size="14" lengthAdjust="spacing" textLength="147.752" x="889.12" y="78.9951">StartResourceBuying</text></g><g id="BuyResources.PlayerResourceSelection"><rect fill="#F1F1F1" height="50" rx="12.5" ry="12.5" style="stroke:#181818;stroke-width:0.5;" width="193.2227" x="866.39" y="244"/><line style="stroke:#181818;stroke-width:0.5;" x1="866.39" x2="1059.6127" y1="270.2969" y2="270.2969"/><text fill="#000000" font-family="sans-serif" font-size="14" lengthAdjust="spacing" textLength="173.2227" x="876.39" y="261.9951">PlayerResourceSelection</text></g><g id="BuyResources.EndTurn"><rect fill="#F1F1F1" height="50" rx="12.5" ry="12.5" style="stroke:#181818;stroke-width:0.5;" width="78.6592" x="865.67" y="516.15"/><line style="stroke:#181818;stroke-width:0.5;" x1="865.67" x2="944.3292" y1="542.4469" y2="542.4469"/><text fill="#000000" font-family="sans-serif" font-size="14" lengthAdjust="spacing" textLength="58.6592" x="875.67" y="534.1451">EndTurn</text></g><g id="BuildCities.StartBuilding"><rect fill="#F1F1F1" height="50" rx="12.5" ry="12.5" style="stroke:#181818;stroke-width:0.5;" width="110.9932" x="146.5" y="516.15"/><line style="stroke:#181818;stroke-width:0.5;" x1="146.5" x2="257.4932" y1="542.4469" y2="542.4469"/><text fill="#000000" font-family="sans-serif" font-size="14" lengthAdjust="spacing" textLength="90.9932" x="156.5" y="534.1451">StartBuilding</text></g><g id="BuildCities.ConfirmBuild"><rect fill="#F1F1F1" height="50" rx="12.5" ry="12.5" style="stroke:#181818;stroke-width:0.5;" width="110.5693" x="262.72" y="770.3"/><line style="stroke:#181818;stroke-width:0.5;" x1="262.72" x2="373.2893" y1="796.5969" y2="796.5969"/><text fill="#000000" font-family="sans-serif" font-size="14" lengthAdjust="spacing" textLength="90.5693" x="272.72" y="788.2951">ConfirmBuild</text></g><g id="ReorderPlayers.Reorder"><rect fill="#F1F1F1" height="50" rx="12.5" ry="12.5" style="stroke:#181818;stroke-width:0.5;" width="75.918" x="631.04" y="244"/><line style="stroke:#181818;stroke-width:0.5;" x1="631.04" x2="706.958" y1="270.2969" y2="270.2969"/><text fill="#000000" font-family="sans-serif" font-size="14" lengthAdjust="spacing" textLength="55.918" x="641.04" y="261.9951">Reorder</text></g><g id="AuctionPowerPlants"><rect fill="#F1F1F1" height="50" rx="12.5" ry="12.5" style="stroke:#181818;stroke-width:0.5;" width="158.3594" x="450.82" y="770.3"/><line style="stroke:#181818;stroke-width:0.5;" x1="450.82" x2="609.1794" y1="796.5969" y2="796.5969"/><text fill="#000000" font-family="sans-serif" font-size="14" lengthAdjust="spacing" textLength="138.3594" x="460.82" y="788.2951">AuctionPowerPlants</text></g><g id="AuctionSpecialCard"><rect fill="#F1F1F1" height="50" rx="12.5" ry="12.5" style="stroke:#181818;stroke-width:0.5;" width="156.4043" x="898.8" y="770.3"/><line style="stroke:#181818;stroke-width:0.5;" x1="898.8" x2="1055.2043" y1="796.5969" y2="796.5969"/><text fill="#000000" font-family="sans-serif" font-size="14" lengthAdjust="spacing" textLength="136.4043" x="908.8" y="788.2951">AuctionSpecialCard</text></g><path d="M492.7,389 L637.2908,389 A12.5,12.5 0 0 1 649.7908,401.5 L649.7908,415.2969 L480.2,415.2969 L480.2,401.5 A12.5,12.5 0 0 1 492.7,389 " fill="#F1F1F1" style="stroke:#F1F1F1;stroke-width:1;"/><rect fill="none" height="304.2969" rx="12.5" ry="12.5" style="stroke:#181818;stroke-width:0.5;" width="169.5908" x="480.2" y="389"/><line style="stroke:#181818;stroke-width:0.5;" x1="480.2" x2="649.7908" y1="415.2969" y2="415.2969"/><text fill="#000000" font-family="sans-serif" font-size="14" lengthAdjust="spacing" textLength="88.3135" x="520.8387" y="406.9951">Bureaucracy</text><g id="Bureaucracy.MarketUpdates"><rect fill="#F1F1F1" height="50" rx="12.5" ry="12.5" style="stroke:#181818;stroke-width:0.5;" width="126.6201" x="503.19" y="427.2969"/><line style="stroke:#181818;stroke-width:0.5;" x1="503.19" x2="629.8101" y1="453.5938" y2="453.5938"/><text fill="#000000" font-family="sans-serif" font-size="14" lengthAdjust="spacing" textLength="106.6201" x="513.19" y="445.292">MarketUpdates</text></g><g id="Bureaucracy.ThrowPowerPlants"><rect fill="#F1F1F1" height="50" rx="12.5" ry="12.5" style="stroke:#181818;stroke-width:0.5;" width="148.5908" x="492.2" y="530.2969"/><line style="stroke:#181818;stroke-width:0.5;" x1="492.2" x2="640.7908" y1="556.5938" y2="556.5938"/><text fill="#000000" font-family="sans-serif" font-size="14" lengthAdjust="spacing" textLength="128.5908" x="502.2" y="548.292">ThrowPowerPlants</text></g><g id="Bureaucracy.Ready"><rect fill="#F1F1F1" height="50" rx="12.5" ry="12.5" style="stroke:#181818;stroke-width:0.5;" width="64.0918" x="534.45" y="633.2969"/><line style="stroke:#181818;stroke-width:0.5;" x1="534.45" x2="598.5418" y1="659.5938" y2="659.5938"/><text fill="#000000" font-family="sans-serif" font-size="14" lengthAdjust="spacing" textLength="44.0918" x="544.45" y="651.292">Ready</text></g><!--link MarketUpdates to ThrowPowerPlants--><g id="link_MarketUpdates_ThrowPowerPlants"><path d="M566.5,477.7469 C566.5,493.6269 566.5,508.2369 566.5,524.0769 " fill="none" id="MarketUpdates-to-ThrowPowerPlants" style="stroke:#181818;stroke-width:1;"/><polygon fill="#181818" points="566.5,530.0769,570.5,521.0769,566.5,525.0769,562.5,521.0769,566.5,530.0769" style="stroke:#181818;stroke-width:1;"/><text fill="#000000" font-family="sans-serif" font-size="13" lengthAdjust="spacing" textLength="67.8882" x="567.5" y="508.3638">All players</text></g><!--link ThrowPowerPlants to Ready--><g id="link_ThrowPowerPlants_Ready"><path d="M566.5,580.7469 C566.5,596.6269 566.5,611.2369 566.5,627.0769 " fill="none" id="ThrowPowerPlants-to-Ready" style="stroke:#181818;stroke-width:1;"/><polygon fill="#181818" points="566.5,633.0769,570.5,624.0769,566.5,628.0769,562.5,624.0769,566.5,633.0769" style="stroke:#181818;stroke-width:1;"/><text fill="#000000" font-family="sans-serif" font-size="13" lengthAdjust="spacing" textLength="67.8882" x="567.5" y="611.3638">All players</text></g><ellipse cx="695" cy="541.15" fill="#222222" rx="10" ry="10" style="stroke:#222222;stroke-width:1;"/><!--link *start* to AuctionPowerPlants--><g id="link_*start*_AuctionPowerPlants"><path d="M695.54,551.5 C696.53,576.55 696.31,646.48 667,693.3 C646.15,726.61 615.1777,749.5726 585.2477,766.8326 " fill="none" id="*start*-to-AuctionPowerPlants" style="stroke:#181818;stroke-width:1;"/><polygon fill="#181818" points="580.05,769.83,589.8447,768.799,584.3814,767.3322,585.8482,761.8688,580.05,769.83" style="stroke:#181818;stroke-width:1;"/></g><!--link BidOrPass to SubmitBid--><g id="link_BidOrPass_SubmitBid"><path d="M828,1021.7 C828,1043.72 828,1069.96 828,1091.96 " fill="none" id="BidOrPass-to-SubmitBid" style="stroke:#181818;stroke-width:1;"/><polygon fill="#181818" points="828,1097.96,832,1088.96,828,1092.96,824,1088.96,828,1097.96" style="stroke:#181818;stroke-width:1;"/><text fill="#000000" font-family="sans-serif" font-size="13" lengthAdjust="spacing" textLength="99.6963" x="829" y="1064.3669">Wait.Count &gt; 1</text></g><!--link BidOrPass to ThrowCard--><g id="link_BidOrPass_ThrowCard"><path d="M782.42,1003.93 C700.35,1018.59 529.53,1062.21 457,1178.3 C423.04,1232.65 446.4659,1306.6726 463.2259,1346.3626 " fill="none" id="BidOrPass-to-ThrowCard" style="stroke:#181818;stroke-width:1;"/><polygon fill="#181818" points="465.56,1351.89,465.7438,1342.0429,463.6149,1347.2838,458.374,1345.1549,465.56,1351.89" style="stroke:#181818;stroke-width:1;"/><text fill="#000000" font-family="sans-serif" font-size="13" lengthAdjust="spacing" textLength="252.7383" x="458" y="1191.3669">Wait.Count == 1 and Player.Cards &gt; 0</text></g><!--reverse link AuctionEnd to BidOrPass--><g id="link_AuctionEnd_BidOrPass"><path d="M593.0124,1502.1873 C669.0424,1498.3473 808.19,1480.7 897,1402.3 C1000.7,1310.76 1000.86,1272.41 984,1178.3 C973.39,1119.06 977.25,1096.04 937,1051.3 C936.38,1050.61 903.37,1034.3 873.85,1019.78 " fill="none" id="AuctionEnd-backto-BidOrPass" style="stroke:#181818;stroke-width:1;"/><polygon fill="#181818" points="587.02,1502.49,596.2103,1506.0309,592.0136,1502.2378,595.8068,1498.0411,587.02,1502.49" style="stroke:#181818;stroke-width:1;"/><text fill="#000000" font-family="sans-serif" font-size="13" lengthAdjust="spacing" textLength="263.6309" x="993" y="1254.8669">Wait.Count == 1 and Player.Cards == 0</text></g><!--link SubmitBid to ResolveWinner--><g id="link_SubmitBid_ResolveWinner"><path d="M847,1148.71 C856.03,1163.44 862.75,1181.9 852,1195.3 C813.54,1243.24 776.69,1210.63 717,1225.3 C708.45,1227.4 705.2735,1228.1869 696.4335,1230.5069 " fill="none" id="SubmitBid-to-ResolveWinner" style="stroke:#181818;stroke-width:1;"/><polygon fill="#181818" points="690.63,1232.03,700.3506,1233.6144,695.4662,1230.7608,698.3198,1225.8764,690.63,1232.03" style="stroke:#181818;stroke-width:1;"/><text fill="#000000" font-family="sans-serif" font-size="13" lengthAdjust="spacing" textLength="117.2539" x="858" y="1191.3669">All bids submitted</text></g><!--reverse link SubmitBid to ResolveWinner--><g id="link_SubmitBid_ResolveWinner"><path d="M786.4016,1151.984 C765.3616,1165.864 743.35,1180.15 719,1195.3 C703.09,1205.2 685.41,1215.78 669.9,1224.93 " fill="none" id="SubmitBid-backto-ResolveWinner" style="stroke:#181818;stroke-width:1;"/><polygon fill="#181818" points="791.41,1148.68,781.6948,1150.2971,787.2364,1151.4333,786.1001,1156.9749,791.41,1148.68" style="stroke:#181818;stroke-width:1;"/><text fill="#000000" font-family="sans-serif" font-size="13" lengthAdjust="spacing" textLength="99.6963" x="744" y="1191.3669">Wait.Count &gt; 1</text></g><!--link ResolveWinner to ThrowCard--><g id="link_ResolveWinner_ThrowCard"><path d="M565.19,1258.37 C534.77,1265.24 500.66,1278.75 481,1305.3 C471.23,1318.49 469.8965,1331.1735 471.4765,1346.0535 " fill="none" id="ResolveWinner-to-ThrowCard" style="stroke:#181818;stroke-width:1;"/><polygon fill="#181818" points="472.11,1352.02,475.1373,1342.648,471.5821,1347.048,467.1821,1343.4927,472.11,1352.02" style="stroke:#181818;stroke-width:1;"/><text fill="#000000" font-family="sans-serif" font-size="13" lengthAdjust="spacing" textLength="252.7383" x="482" y="1318.3669">Wait.Count == 1 and Player.Cards &gt; 0</text></g><!--link ResolveWinner to AuctionEnd--><g id="link_ResolveWinner_AuctionEnd"><path d="M690.77,1267.19 C725.4,1279.1 757.91,1297.6 739,1322.3 C707.93,1362.88 665.11,1317.17 628,1352.3 C595.03,1383.51 620.66,1411.18 596,1449.3 C588.91,1460.26 583.5619,1466.4722 573.9519,1474.9822 " fill="none" id="ResolveWinner-to-AuctionEnd" style="stroke:#181818;stroke-width:1;"/><polygon fill="#181818" points="569.46,1478.96,578.8497,1475.988,573.2033,1475.6452,573.546,1469.9987,569.46,1478.96" style="stroke:#181818;stroke-width:1;"/><text fill="#000000" font-family="sans-serif" font-size="13" lengthAdjust="spacing" textLength="263.6309" x="629" y="1381.8669">Wait.Count == 1 and Player.Cards == 0</text></g><!--link ThrowCard to AuctionEnd--><g id="link_ThrowCard_AuctionEnd"><path d="M466.83,1402.74 C462.51,1416.97 459.92,1434.89 467,1449.3 C472.76,1461.01 477.6657,1467.2169 487.9857,1475.2069 " fill="none" id="ThrowCard-to-AuctionEnd" style="stroke:#181818;stroke-width:1;"/><polygon fill="#181818" points="492.73,1478.88,488.0623,1470.2075,488.7764,1475.8191,483.1648,1476.5331,492.73,1478.88" style="stroke:#181818;stroke-width:1;"/><text fill="#000000" font-family="sans-serif" font-size="13" lengthAdjust="spacing" textLength="123.6714" x="468" y="1445.3669">RFID Trigger or "B"</text></g><!--reverse link AuctionPowerPlants to AuctionEnd--><g id="link_AuctionPowerPlants_AuctionEnd"><path d="M478.1882,823.7788 C423.9682,855.9088 347,914.8 347,995.3 C347,995.3 347,995.3 347,1378.3 C347,1445.42 430.79,1478.52 487.08,1493.18 " fill="none" id="AuctionPowerPlants-backto-AuctionEnd" style="stroke:#181818;stroke-width:1;"/><polygon fill="#181818" points="483.35,820.72,473.5682,821.867,479.0485,823.269,477.6465,828.7494,483.35,820.72" style="stroke:#181818;stroke-width:1;"/><text fill="#000000" font-family="sans-serif" font-size="13" lengthAdjust="spacing" textLength="75.0991" x="348" y="1191.3669">Next Player</text></g><!--link StartResourceBuying to PlayerResourceSelection--><g id="link_StartResourceBuying_PlayerResourceSelection"><path d="M963,111.41 C963,146.06 963,203.1 963,237.69 " fill="none" id="StartResourceBuying-to-PlayerResourceSelection" style="stroke:#181818;stroke-width:1;"/><polygon fill="#181818" points="963,243.69,967,234.69,963,238.69,959,234.69,963,243.69" style="stroke:#181818;stroke-width:1;"/><text fill="#000000" font-family="sans-serif" font-size="13" lengthAdjust="spacing" textLength="115.8638" x="964" y="154.0669">Reverse order set</text></g><!--link PlayerResourceSelection to PlayerResourceSelection--><g id="link_PlayerResourceSelection_PlayerResourceSelection"><path d="M1059.99,254.26 C1080.13,255.81 1094.61,260.73 1094.61,269 C1094.61,277.28 1086.1123,281.7396 1065.9723,283.2896 " fill="none" id="PlayerResourceSelection-to-PlayerResourceSelection" style="stroke:#181818;stroke-width:1;"/><polygon fill="#181818" points="1059.99,283.75,1069.2704,287.0476,1064.9753,283.3663,1068.6565,279.0712,1059.99,283.75" style="stroke:#181818;stroke-width:1;"/><text fill="#000000" font-family="sans-serif" font-size="13" lengthAdjust="spacing" textLength="237.6943" x="1100.61" y="273.5669">Adjust resource quantity ("A" or "B")</text></g><!--link PlayerResourceSelection to EndTurn--><g id="link_PlayerResourceSelection_EndTurn"><path d="M933.83,294.22 C920.82,306.93 906.89,323.66 900,342 C877.79,401.11 888.666,471.4379 897.356,509.8479 " fill="none" id="PlayerResourceSelection-to-EndTurn" style="stroke:#181818;stroke-width:1;"/><polygon fill="#181818" points="898.68,515.7,900.5954,506.0392,897.5767,510.8233,892.7926,507.8045,898.68,515.7" style="stroke:#181818;stroke-width:1;"/><text fill="#000000" font-family="sans-serif" font-size="13" lengthAdjust="spacing" textLength="150.8711" x="901" y="355.0669">Confirm purchase ("C")</text></g><!--reverse link PlayerResourceSelection to EndTurn--><g id="link_PlayerResourceSelection_EndTurn"><path d="M1021.9347,297.434 C1047.6247,312.964 1065.74,332.11 1056,359 C1032.02,425.22 972.1,484.23 935.36,515.83 " fill="none" id="PlayerResourceSelection-backto-EndTurn" style="stroke:#181818;stroke-width:1;"/><polygon fill="#181818" points="1016.8,294.33,1022.4327,302.4091,1021.0789,296.9167,1026.5714,295.5629,1016.8,294.33" style="stroke:#181818;stroke-width:1;"/><text fill="#000000" font-family="sans-serif" font-size="13" lengthAdjust="spacing" textLength="75.5117" x="1059" y="355.0669">Next player</text></g><!--link EndTurn to BuildCities--><g id="link_EndTurn_BuildCities"><path d="M898.42,515.95 C886.01,474.77 854.69,395.44 793,373.78 C736.81,354.04 718.51,371.47 659,373.78 C571.69,377.16 530.75,333.83 463,389 C449.9925,399.5925 440.6856,413.7756 434.0544,429.2369 C430.7388,436.9675 428.092,445.0177 425.9861,453.0983 C425.9203,453.3508 427.3452,447.7913 427.2804,448.0439 " fill="none" id="EndTurn-to-BuildCities" style="stroke:#181818;stroke-width:1;"/><polygon fill="#181818" points="425.7902,453.8559,431.9002,446.1314,427.0321,449.0126,424.1508,444.1445,425.7902,453.8559" style="stroke:#181818;stroke-width:1;"/><text fill="#000000" font-family="sans-serif" font-size="13" lengthAdjust="spacing" textLength="132.7422" x="660" y="355.0669">All players complete</text></g><!--link StartBuilding to ConfirmBuild--><g id="link_StartBuilding_ConfirmBuild"><path d="M163.19,566.41 C106.92,604.56 14.45,680.39 63,740.3 C87.61,770.67 189.1428,784.118 256.4728,789.998 " fill="none" id="StartBuilding-to-ConfirmBuild" style="stroke:#181818;stroke-width:1;"/><polygon fill="#181818" points="262.45,790.52,253.8321,785.7522,257.469,790.085,253.1361,793.7218,262.45,790.52" style="stroke:#181818;stroke-width:1;"/><text fill="#000000" font-family="sans-serif" font-size="13" lengthAdjust="spacing" textLength="210.793" x="64" y="736.3669">Add/Remove houses ("A" or "B")</text></g><!--reverse link StartBuilding to ConfirmBuild--><g id="link_StartBuilding_ConfirmBuild"><path d="M212.0245,572.1862 C222.4145,602.5162 239.71,649.93 261,693.3 C267.85,707.26 271.26,709.82 279,723.3 C287.83,738.67 297.41,756.11 304.87,769.86 " fill="none" id="StartBuilding-backto-ConfirmBuild" style="stroke:#181818;stroke-width:1;"/><polygon fill="#181818" points="210.08,566.51,209.2126,576.3206,211.7004,571.2402,216.7808,573.728,210.08,566.51" style="stroke:#181818;stroke-width:1;"/><text fill="#000000" font-family="sans-serif" font-size="13" lengthAdjust="spacing" textLength="75.5117" x="288" y="736.3669">Next player</text></g><!--link ConfirmBuild to Bureaucracy--><g id="link_ConfirmBuild_Bureaucracy"><path d="M348.41,770.15 C372.69,750.38 407.13,721.22 435,693.3 C450.04,678.23 461.3687,666.1688 475.9587,649.7188 " fill="none" id="ConfirmBuild-to-Bureaucracy" style="stroke:#181818;stroke-width:1;"/><polygon fill="#181818" points="479.94,645.23,470.9756,649.309,476.6223,648.9707,476.9606,654.6174,479.94,645.23" style="stroke:#181818;stroke-width:1;"/><text fill="#000000" font-family="sans-serif" font-size="13" lengthAdjust="spacing" textLength="132.7422" x="402" y="736.3669">All players complete</text></g><!--link Reorder to Bureaucracy--><g id="link_Reorder_Bureaucracy"><path d="M707.31,280.12 C753.89,294.28 822.93,322.44 794,359 C758.01,404.48 714.72,356.04 667,389 C661.14,393.05 659.9727,393.5384 654.6027,398.3884 " fill="none" id="Reorder-to-Bureaucracy" style="stroke:#181818;stroke-width:1;"/><polygon fill="#181818" points="650.15,402.41,659.5102,399.3461,653.8606,399.0587,654.1481,393.4091,650.15,402.41" style="stroke:#181818;stroke-width:1;"/></g><!--link AuctionPowerPlants to CardBidding--><g id="link_AuctionPowerPlants_CardBidding"><path d="M609.49,820.11 C683.07,841.07 795.89,870.5 896,885.3 C911.96,887.66 1029.46,882.02 1041,893.3 C1057.01,908.94 1059.1975,933.895 1057.2913,955.2063 C1057.2317,955.8722 1057.1681,956.5346 1057.1008,957.1931 C1057.084,957.3577 1057.6951,951.5551 1057.6778,951.7192 " fill="none" id="AuctionPowerPlants-to-CardBidding" style="stroke:#181818;stroke-width:1;"/><polygon fill="#181818" points="1057.0497,957.6862,1061.9699,949.1544,1057.5731,952.7137,1054.0138,948.3169,1057.0497,957.6862" style="stroke:#181818;stroke-width:1;"/><text fill="#000000" font-family="sans-serif" font-size="13" lengthAdjust="spacing" textLength="81.231" x="897" y="881.3669">RFID Trigger</text></g><!--link AuctionPowerPlants to AuctionPowerPlants--><g id="link_AuctionPowerPlants_AuctionPowerPlants"><path d="M609.51,783.56 C629.35,784.38 644.18,788.29 644.18,795.3 C644.18,802.31 635.3449,805.9722 615.5049,806.7922 " fill="none" id="AuctionPowerPlants-to-AuctionPowerPlants" style="stroke:#181818;stroke-width:1;"/><polygon fill="#181818" points="609.51,807.04,618.6675,810.6649,614.5057,806.8335,618.3371,802.6718,609.51,807.04" style="stroke:#181818;stroke-width:1;"/><text fill="#000000" font-family="sans-serif" font-size="13" lengthAdjust="spacing" textLength="119.7295" x="650.18" y="799.8669">Player Passes("B")</text></g><!--link AuctionPowerPlants to AuctionSpecialCard--><g id="link_AuctionPowerPlants_AuctionSpecialCard"><path d="M609.66,795.3 C691.23,795.3 811.26,795.3 892.43,795.3 " fill="none" id="AuctionPowerPlants-to-AuctionSpecialCard" style="stroke:#181818;stroke-width:1;"/><polygon fill="#181818" points="898.43,795.3,889.43,791.3,893.43,795.3,889.43,799.3,898.43,795.3" style="stroke:#181818;stroke-width:1;"/><text fill="#000000" font-family="sans-serif" font-size="13" lengthAdjust="spacing" textLength="104.7236" x="701.99" y="788.3669">Any Player ("C")</text></g><!--link AuctionSpecialCard to CardBidding--><g id="link_AuctionSpecialCard_CardBidding"><path d="M976.26,820.59 C977.03,840.78 981.55,868.77 999,885.3 C1012.8,898.37 1028.32,879.15 1041,893.3 C1044.7325,897.4675 1047.6677,902.1538 1049.9452,907.168 C1050.2299,907.7948 1048.203,902.8856 1048.4674,903.5222 " fill="none" id="AuctionSpecialCard-to-CardBidding" style="stroke:#181818;stroke-width:1;"/><polygon fill="#181818" points="1050.7687,909.0633,1051.0108,899.2174,1048.8509,904.4457,1043.6227,902.2858,1050.7687,909.0633" style="stroke:#181818;stroke-width:1;"/><text fill="#000000" font-family="sans-serif" font-size="13" lengthAdjust="spacing" textLength="81.231" x="1000" y="881.3669">RFID Trigger</text></g><!--link CardBidding to ReorderPlayers--><g id="link_CardBidding_ReorderPlayers"><path d="M1057.036,980.4858 C1057.2274,980.1118 1057.4213,979.7317 1057.6175,979.3454 C1059.1872,976.2549 1060.9077,972.7714 1062.7231,968.9455 C1069.985,953.6416 1078.7675,932.8569 1085.51,909.8162 C1098.995,863.735 1104.32,808.63 1073,770.3 C1006.65,689.11 926.44,765.07 850,693.3 C743.17,592.98 824.69,494.53 723,389 C685.62,350.22 648.3,376.35 615,334 C612.7788,331.1763 610.8169,328.098 609.0841,324.8682 C608.2177,323.2533 607.4086,321.6006 606.653,319.9228 C606.4641,319.5034 606.2786,319.0824 606.0963,318.66 C606.0052,318.4489 608.25,323.7643 608.1605,323.5524 " fill="none" id="CardBidding-to-ReorderPlayers" style="stroke:#181818;stroke-width:1;"/><polygon fill="#181818" points="605.8254,318.0255,605.6435,327.8727,607.7713,322.6313,613.0127,324.7591,605.8254,318.0255" style="stroke:#181818;stroke-width:1;"/><text fill="#000000" font-family="sans-serif" font-size="13" lengthAdjust="spacing" textLength="183.752" x="1037" y="736.3669">No Next Player and Round 1</text></g><!--link ReorderPlayers to BuildCities--><g id="link_ReorderPlayers_BuildCities"><path d="M587.9765,281.5393 C587.839,281.7306 587.6999,281.9238 587.5592,282.1189 C587.2778,282.5091 586.9902,282.9069 586.6964,283.312 C586.1087,284.1223 585.4963,284.9619 584.8602,285.8287 C583.5878,287.5622 582.2201,289.4043 580.7646,291.3374 C577.8534,295.2035 574.5903,299.4334 571.0338,303.8862 C556.8075,321.6975 537.885,343.075 518,359 C496.27,376.41 480.45,367.31 463,389 C452.2075,402.4175 444.0625,418.385 437.9155,434.8348 C434.842,443.0598 432.2679,451.4053 430.1122,459.6129 C429.0343,463.7167 428.0611,467.7861 427.1822,471.7887 C427.1273,472.0388 428.3456,466.4253 428.2914,466.6749 " fill="none" id="ReorderPlayers-to-BuildCities" style="stroke:#181818;stroke-width:1;"/><polygon fill="#181818" points="427.0185,472.5383,432.8368,464.5918,428.0793,467.6522,425.0189,462.8946,427.0185,472.5383" style="stroke:#181818;stroke-width:1;"/><text fill="#000000" font-family="sans-serif" font-size="13" lengthAdjust="spacing" textLength="54.1201" x="535" y="355.0669">Round 1</text></g><!--reverse link ReorderPlayers to BuildCities--><g id="link_ReorderPlayers_BuildCities"><path d="M581.6448,270.4666 C581.0876,270.491 586.0877,270.282 585.4837,270.3117 C584.2756,270.3712 582.9754,270.4419 581.5895,270.526 C578.8178,270.6943 575.7032,270.9164 572.297,271.2094 C558.6722,272.3813 540.3806,274.6875 520.6938,279.225 C481.32,288.3 436.365,306.3 412,342 C410.47,344.24 412.1425,392.2775 414.235,440.4875 C414.3658,443.5006 414.4982,446.5144 414.6316,449.5178 C414.6983,451.0194 414.7652,452.5185 414.8323,454.0135 " fill="none" id="ReorderPlayers-backto-BuildCities" style="stroke:#181818;stroke-width:1;"/><polygon fill="#181818" points="587.6394,270.213,578.4784,266.597,582.6439,270.4244,578.8165,274.5899,587.6394,270.213" style="stroke:#181818;stroke-width:1;"/><text fill="#000000" font-family="sans-serif" font-size="13" lengthAdjust="spacing" textLength="96.9097" x="413" y="355.0669">No Next Player</text></g><!--link Bureaucracy to AuctionPowerPlants--><g id="link_Bureaucracy_AuctionPowerPlants"><path d="M579.54,693.59 C577.91,709.59 574.91,725.43 570,740.3 C566.49,750.94 563.682,756.4604 556.922,765.1204 " fill="none" id="Bureaucracy-to-AuctionPowerPlants" style="stroke:#181818;stroke-width:1;"/><polygon fill="#181818" points="553.23,769.85,561.921,765.2168,556.3066,765.9086,555.6148,760.2942,553.23,769.85" style="stroke:#181818;stroke-width:1;"/></g><!--SRC=[dLLDRnCn4BtdLuno2aWfz8hKIaa0YGCG9K4ze1xSzJGnREp57mbHnNzdrX-ilTsIghd5C-_Dc-VnxFVNjp2TNiFCLLOekLH7rCkQIMj68sEPnO48F8p-zABh1Yl1wWNJF8-s_-U2So6tT0pqetzVzP8P0rEkZf8ghztTNbWwXtTmmuIzM2WdBLp3PH-WnNPd2R7PQNNqfGh4rHLS0fCSIEK9zKMROOZdRP-dndlRjVn1Fek7JWDHfpTri4AZwWFU22bH4zUihk5E4CRuL8lS0ykq17vHCpsgsD0P9tkWvEOBRUXqfquAejN7J-zXGpMsL4jf6C_77fObJLqpE7Y4_eA_RQpR3TFSdTeMdAxGn6bQMwPjEgHuEsT9Je2du1fhz8LQRNX0RP1aSH9dq7gkf_BFyytu3sSiw1Y2NuxQ4FO4a_5i79j_zVyQwJB8butJBUb2oNkXzz1GvewHsibu4LbIKZ3mQLtUnIQuME1IjRaJDLy8Az34iGtP1YgrRsgqcBlVvMRc- -FSzgZRdtjl-9iLxjK1OQUS8V0ZKmf4wAcaVjn92OcLvquZSvLcrUbiDolqbx-C2G_nWOI9623CVUYg1DXdfd-Y_TPm2floNPTJdKdgdb2UqYqKndizj086die_rxD5Mpw-GLJlxPSoWodGxaeq4tzDp-38lm2aN9uIJvZRWQndQCz3dJd5rT5mg7nV-9MreWt6QUtrShkBpUS-9UUdOGpFb1hbip3y4VqB]--></g></svg>